<?xml version="1.0" encoding="utf-8" standalone="no"?>
<!DOCTYPE svg PUBLIC "-//W3C//DTD SVG 1.1//EN"
  "http://www.w3.org/Graphics/SVG/1.1/DTD/svg11.dtd">
<!-- Created with matplotlib (http://matplotlib.org/) -->
<svg height="360pt" version="1.1" viewBox="0 0 648 360" width="648pt" xmlns="http://www.w3.org/2000/svg" xmlns:xlink="http://www.w3.org/1999/xlink">
 <defs>
  <style type="text/css">
*{stroke-linecap:butt;stroke-linejoin:round;}
  </style>
 </defs>
 <g id="figure_1">
  <g id="patch_1">
   <path d="M 0 360 
L 648 360 
L 648 0 
L 0 0 
z
" style="fill:none;"/>
  </g>
  <g id="axes_1">
   <g id="patch_2">
    <path d="M 81 315 
L 583.2 315 
L 583.2 43.2 
L 81 43.2 
z
" style="fill:#eaeaf2;"/>
   </g>
   <g id="matplotlib.axis_1">
    <g id="xtick_1">
     <g id="line2d_1">
      <path clip-path="url(#p3f13032187)" d="M 81 315 
L 81 43.2 
" style="fill:none;stroke:#ffffff;stroke-linecap:round;"/>
     </g>
     <g id="line2d_2"/>
     <g id="text_1">
      <!-- −1000 -->
      <defs>
       <path d="M 52.828125 31.203125 
L 5.5625 31.203125 
L 5.5625 39.40625 
L 52.828125 39.40625 
z
" id="ArialMT-2212"/>
       <path d="M 37.25 0 
L 28.46875 0 
L 28.46875 56 
Q 25.296875 52.984375 20.140625 49.953125 
Q 14.984375 46.921875 10.890625 45.40625 
L 10.890625 53.90625 
Q 18.265625 57.375 23.78125 62.296875 
Q 29.296875 67.234375 31.59375 71.875 
L 37.25 71.875 
z
" id="ArialMT-31"/>
       <path d="M 4.15625 35.296875 
Q 4.15625 48 6.765625 55.734375 
Q 9.375 63.484375 14.515625 67.671875 
Q 19.671875 71.875 27.484375 71.875 
Q 33.25 71.875 37.59375 69.546875 
Q 41.9375 67.234375 44.765625 62.859375 
Q 47.609375 58.5 49.21875 52.21875 
Q 50.828125 45.953125 50.828125 35.296875 
Q 50.828125 22.703125 48.234375 14.96875 
Q 45.65625 7.234375 40.5 3 
Q 35.359375 -1.21875 27.484375 -1.21875 
Q 17.140625 -1.21875 11.234375 6.203125 
Q 4.15625 15.140625 4.15625 35.296875 
z
M 13.1875 35.296875 
Q 13.1875 17.671875 17.3125 11.828125 
Q 21.4375 6 27.484375 6 
Q 33.546875 6 37.671875 11.859375 
Q 41.796875 17.71875 41.796875 35.296875 
Q 41.796875 52.984375 37.671875 58.78125 
Q 33.546875 64.59375 27.390625 64.59375 
Q 21.34375 64.59375 17.71875 59.46875 
Q 13.1875 52.9375 13.1875 35.296875 
z
" id="ArialMT-30"/>
      </defs>
      <g style="fill:#ffffff;" transform="translate(66.957812 329.157812)scale(0.1 -0.1)">
       <use xlink:href="#ArialMT-2212"/>
       <use x="58.398438" xlink:href="#ArialMT-31"/>
       <use x="114.013672" xlink:href="#ArialMT-30"/>
       <use x="169.628906" xlink:href="#ArialMT-30"/>
       <use x="225.244141" xlink:href="#ArialMT-30"/>
      </g>
     </g>
    </g>
    <g id="xtick_2">
     <g id="line2d_3">
      <path clip-path="url(#p3f13032187)" d="M 164.7 315 
L 164.7 43.2 
" style="fill:none;stroke:#ffffff;stroke-linecap:round;"/>
     </g>
     <g id="line2d_4"/>
     <g id="text_2">
      <!-- −500 -->
      <defs>
       <path d="M 4.15625 18.75 
L 13.375 19.53125 
Q 14.40625 12.796875 18.140625 9.390625 
Q 21.875 6 27.15625 6 
Q 33.5 6 37.890625 10.78125 
Q 42.28125 15.578125 42.28125 23.484375 
Q 42.28125 31 38.0625 35.34375 
Q 33.84375 39.703125 27 39.703125 
Q 22.75 39.703125 19.328125 37.765625 
Q 15.921875 35.84375 13.96875 32.765625 
L 5.71875 33.84375 
L 12.640625 70.609375 
L 48.25 70.609375 
L 48.25 62.203125 
L 19.671875 62.203125 
L 15.828125 42.96875 
Q 22.265625 47.46875 29.34375 47.46875 
Q 38.71875 47.46875 45.15625 40.96875 
Q 51.609375 34.46875 51.609375 24.265625 
Q 51.609375 14.546875 45.953125 7.46875 
Q 39.0625 -1.21875 27.15625 -1.21875 
Q 17.390625 -1.21875 11.203125 4.25 
Q 5.03125 9.71875 4.15625 18.75 
z
" id="ArialMT-35"/>
      </defs>
      <g style="fill:#ffffff;" transform="translate(153.438281 329.157812)scale(0.1 -0.1)">
       <use xlink:href="#ArialMT-2212"/>
       <use x="58.398438" xlink:href="#ArialMT-35"/>
       <use x="114.013672" xlink:href="#ArialMT-30"/>
       <use x="169.628906" xlink:href="#ArialMT-30"/>
      </g>
     </g>
    </g>
    <g id="xtick_3">
     <g id="line2d_5">
      <path clip-path="url(#p3f13032187)" d="M 248.4 315 
L 248.4 43.2 
" style="fill:none;stroke:#ffffff;stroke-linecap:round;"/>
     </g>
     <g id="line2d_6"/>
     <g id="text_3">
      <!-- 0 -->
      <g style="fill:#ffffff;" transform="translate(245.619531 329.157812)scale(0.1 -0.1)">
       <use xlink:href="#ArialMT-30"/>
      </g>
     </g>
    </g>
    <g id="xtick_4">
     <g id="line2d_7">
      <path clip-path="url(#p3f13032187)" d="M 332.1 315 
L 332.1 43.2 
" style="fill:none;stroke:#ffffff;stroke-linecap:round;"/>
     </g>
     <g id="line2d_8"/>
     <g id="text_4">
      <!-- 500 -->
      <g style="fill:#ffffff;" transform="translate(323.758594 329.157812)scale(0.1 -0.1)">
       <use xlink:href="#ArialMT-35"/>
       <use x="55.615234" xlink:href="#ArialMT-30"/>
       <use x="111.230469" xlink:href="#ArialMT-30"/>
      </g>
     </g>
    </g>
    <g id="xtick_5">
     <g id="line2d_9">
      <path clip-path="url(#p3f13032187)" d="M 415.8 315 
L 415.8 43.2 
" style="fill:none;stroke:#ffffff;stroke-linecap:round;"/>
     </g>
     <g id="line2d_10"/>
     <g id="text_5">
      <!-- 1000 -->
      <g style="fill:#ffffff;" transform="translate(404.678125 329.157812)scale(0.1 -0.1)">
       <use xlink:href="#ArialMT-31"/>
       <use x="55.615234" xlink:href="#ArialMT-30"/>
       <use x="111.230469" xlink:href="#ArialMT-30"/>
       <use x="166.845703" xlink:href="#ArialMT-30"/>
      </g>
     </g>
    </g>
    <g id="xtick_6">
     <g id="line2d_11">
      <path clip-path="url(#p3f13032187)" d="M 499.5 315 
L 499.5 43.2 
" style="fill:none;stroke:#ffffff;stroke-linecap:round;"/>
     </g>
     <g id="line2d_12"/>
     <g id="text_6">
      <!-- 1500 -->
      <g style="fill:#ffffff;" transform="translate(488.378125 329.157812)scale(0.1 -0.1)">
       <use xlink:href="#ArialMT-31"/>
       <use x="55.615234" xlink:href="#ArialMT-35"/>
       <use x="111.230469" xlink:href="#ArialMT-30"/>
       <use x="166.845703" xlink:href="#ArialMT-30"/>
      </g>
     </g>
    </g>
    <g id="xtick_7">
     <g id="line2d_13">
      <path clip-path="url(#p3f13032187)" d="M 583.2 315 
L 583.2 43.2 
" style="fill:none;stroke:#ffffff;stroke-linecap:round;"/>
     </g>
     <g id="line2d_14"/>
     <g id="text_7">
      <!-- 2000 -->
      <defs>
       <path d="M 50.34375 8.453125 
L 50.34375 0 
L 3.03125 0 
Q 2.9375 3.171875 4.046875 6.109375 
Q 5.859375 10.9375 9.828125 15.625 
Q 13.8125 20.3125 21.34375 26.46875 
Q 33.015625 36.03125 37.109375 41.625 
Q 41.21875 47.21875 41.21875 52.203125 
Q 41.21875 57.421875 37.46875 61 
Q 33.734375 64.59375 27.734375 64.59375 
Q 21.390625 64.59375 17.578125 60.78125 
Q 13.765625 56.984375 13.71875 50.25 
L 4.6875 51.171875 
Q 5.609375 61.28125 11.65625 66.578125 
Q 17.71875 71.875 27.9375 71.875 
Q 38.234375 71.875 44.234375 66.15625 
Q 50.25 60.453125 50.25 52 
Q 50.25 47.703125 48.484375 43.546875 
Q 46.734375 39.40625 42.65625 34.8125 
Q 38.578125 30.21875 29.109375 22.21875 
Q 21.1875 15.578125 18.9375 13.203125 
Q 16.703125 10.84375 15.234375 8.453125 
z
" id="ArialMT-32"/>
      </defs>
      <g style="fill:#ffffff;" transform="translate(572.078125 329.157812)scale(0.1 -0.1)">
       <use xlink:href="#ArialMT-32"/>
       <use x="55.615234" xlink:href="#ArialMT-30"/>
       <use x="111.230469" xlink:href="#ArialMT-30"/>
       <use x="166.845703" xlink:href="#ArialMT-30"/>
      </g>
     </g>
    </g>
    <g id="text_8">
     <!-- 1st PCA direction -->
     <defs>
      <path d="M 3.078125 15.484375 
L 11.765625 16.84375 
Q 12.5 11.625 15.84375 8.84375 
Q 19.1875 6.0625 25.203125 6.0625 
Q 31.25 6.0625 34.171875 8.515625 
Q 37.109375 10.984375 37.109375 14.3125 
Q 37.109375 17.28125 34.515625 19 
Q 32.71875 20.171875 25.53125 21.96875 
Q 15.875 24.421875 12.140625 26.203125 
Q 8.40625 27.984375 6.46875 31.125 
Q 4.546875 34.28125 4.546875 38.09375 
Q 4.546875 41.546875 6.125 44.5 
Q 7.71875 47.46875 10.453125 49.421875 
Q 12.5 50.921875 16.03125 51.96875 
Q 19.578125 53.03125 23.640625 53.03125 
Q 29.734375 53.03125 34.34375 51.265625 
Q 38.96875 49.515625 41.15625 46.5 
Q 43.359375 43.5 44.1875 38.484375 
L 35.59375 37.3125 
Q 35.015625 41.3125 32.203125 43.546875 
Q 29.390625 45.796875 24.265625 45.796875 
Q 18.21875 45.796875 15.625 43.796875 
Q 13.03125 41.796875 13.03125 39.109375 
Q 13.03125 37.40625 14.109375 36.03125 
Q 15.1875 34.625 17.484375 33.6875 
Q 18.796875 33.203125 25.25 31.453125 
Q 34.578125 28.953125 38.25 27.359375 
Q 41.9375 25.78125 44.03125 22.75 
Q 46.140625 19.734375 46.140625 15.234375 
Q 46.140625 10.84375 43.578125 6.953125 
Q 41.015625 3.078125 36.171875 0.953125 
Q 31.34375 -1.171875 25.25 -1.171875 
Q 15.140625 -1.171875 9.84375 3.03125 
Q 4.546875 7.234375 3.078125 15.484375 
z
" id="ArialMT-73"/>
      <path d="M 25.78125 7.859375 
L 27.046875 0.09375 
Q 23.34375 -0.6875 20.40625 -0.6875 
Q 15.625 -0.6875 12.984375 0.828125 
Q 10.359375 2.34375 9.28125 4.8125 
Q 8.203125 7.28125 8.203125 15.1875 
L 8.203125 45.015625 
L 1.765625 45.015625 
L 1.765625 51.859375 
L 8.203125 51.859375 
L 8.203125 64.703125 
L 16.9375 69.96875 
L 16.9375 51.859375 
L 25.78125 51.859375 
L 25.78125 45.015625 
L 16.9375 45.015625 
L 16.9375 14.703125 
Q 16.9375 10.9375 17.40625 9.859375 
Q 17.875 8.796875 18.921875 8.15625 
Q 19.96875 7.515625 21.921875 7.515625 
Q 23.390625 7.515625 25.78125 7.859375 
z
" id="ArialMT-74"/>
      <path id="ArialMT-20"/>
      <path d="M 7.71875 0 
L 7.71875 71.578125 
L 34.71875 71.578125 
Q 41.84375 71.578125 45.609375 70.90625 
Q 50.875 70.015625 54.4375 67.546875 
Q 58.015625 65.09375 60.1875 60.640625 
Q 62.359375 56.203125 62.359375 50.875 
Q 62.359375 41.75 56.546875 35.421875 
Q 50.734375 29.109375 35.546875 29.109375 
L 17.1875 29.109375 
L 17.1875 0 
z
M 17.1875 37.546875 
L 35.6875 37.546875 
Q 44.875 37.546875 48.734375 40.96875 
Q 52.59375 44.390625 52.59375 50.59375 
Q 52.59375 55.078125 50.3125 58.265625 
Q 48.046875 61.46875 44.34375 62.5 
Q 41.9375 63.140625 35.5 63.140625 
L 17.1875 63.140625 
z
" id="ArialMT-50"/>
      <path d="M 58.796875 25.09375 
L 68.265625 22.703125 
Q 65.28125 11.03125 57.546875 4.90625 
Q 49.8125 -1.21875 38.625 -1.21875 
Q 27.046875 -1.21875 19.796875 3.484375 
Q 12.546875 8.203125 8.765625 17.140625 
Q 4.984375 26.078125 4.984375 36.328125 
Q 4.984375 47.515625 9.25 55.828125 
Q 13.53125 64.15625 21.40625 68.46875 
Q 29.296875 72.796875 38.765625 72.796875 
Q 49.515625 72.796875 56.828125 67.328125 
Q 64.15625 61.859375 67.046875 51.953125 
L 57.71875 49.75 
Q 55.21875 57.5625 50.484375 61.125 
Q 45.75 64.703125 38.578125 64.703125 
Q 30.328125 64.703125 24.78125 60.734375 
Q 19.234375 56.78125 16.984375 50.109375 
Q 14.75 43.453125 14.75 36.375 
Q 14.75 27.25 17.40625 20.4375 
Q 20.0625 13.625 25.671875 10.25 
Q 31.296875 6.890625 37.84375 6.890625 
Q 45.796875 6.890625 51.3125 11.46875 
Q 56.84375 16.0625 58.796875 25.09375 
z
" id="ArialMT-43"/>
      <path d="M -0.140625 0 
L 27.34375 71.578125 
L 37.546875 71.578125 
L 66.84375 0 
L 56.0625 0 
L 47.703125 21.6875 
L 17.78125 21.6875 
L 9.90625 0 
z
M 20.515625 29.390625 
L 44.78125 29.390625 
L 37.3125 49.21875 
Q 33.890625 58.25 32.234375 64.0625 
Q 30.859375 57.171875 28.375 50.390625 
z
" id="ArialMT-41"/>
      <path d="M 40.234375 0 
L 40.234375 6.546875 
Q 35.296875 -1.171875 25.734375 -1.171875 
Q 19.53125 -1.171875 14.328125 2.25 
Q 9.125 5.671875 6.265625 11.796875 
Q 3.421875 17.921875 3.421875 25.875 
Q 3.421875 33.640625 6 39.96875 
Q 8.59375 46.296875 13.765625 49.65625 
Q 18.953125 53.03125 25.34375 53.03125 
Q 30.03125 53.03125 33.6875 51.046875 
Q 37.359375 49.078125 39.65625 45.90625 
L 39.65625 71.578125 
L 48.390625 71.578125 
L 48.390625 0 
z
M 12.453125 25.875 
Q 12.453125 15.921875 16.640625 10.984375 
Q 20.84375 6.0625 26.5625 6.0625 
Q 32.328125 6.0625 36.34375 10.765625 
Q 40.375 15.484375 40.375 25.140625 
Q 40.375 35.796875 36.265625 40.765625 
Q 32.171875 45.75 26.171875 45.75 
Q 20.3125 45.75 16.375 40.96875 
Q 12.453125 36.1875 12.453125 25.875 
z
" id="ArialMT-64"/>
      <path d="M 6.640625 61.46875 
L 6.640625 71.578125 
L 15.4375 71.578125 
L 15.4375 61.46875 
z
M 6.640625 0 
L 6.640625 51.859375 
L 15.4375 51.859375 
L 15.4375 0 
z
" id="ArialMT-69"/>
      <path d="M 6.5 0 
L 6.5 51.859375 
L 14.40625 51.859375 
L 14.40625 44 
Q 17.4375 49.515625 20 51.265625 
Q 22.5625 53.03125 25.640625 53.03125 
Q 30.078125 53.03125 34.671875 50.203125 
L 31.640625 42.046875 
Q 28.421875 43.953125 25.203125 43.953125 
Q 22.3125 43.953125 20.015625 42.21875 
Q 17.71875 40.484375 16.75 37.40625 
Q 15.28125 32.71875 15.28125 27.15625 
L 15.28125 0 
z
" id="ArialMT-72"/>
      <path d="M 42.09375 16.703125 
L 51.171875 15.578125 
Q 49.03125 7.625 43.21875 3.21875 
Q 37.40625 -1.171875 28.375 -1.171875 
Q 17 -1.171875 10.328125 5.828125 
Q 3.65625 12.84375 3.65625 25.484375 
Q 3.65625 38.578125 10.390625 45.796875 
Q 17.140625 53.03125 27.875 53.03125 
Q 38.28125 53.03125 44.875 45.953125 
Q 51.46875 38.875 51.46875 26.03125 
Q 51.46875 25.25 51.421875 23.6875 
L 12.75 23.6875 
Q 13.234375 15.140625 17.578125 10.59375 
Q 21.921875 6.0625 28.421875 6.0625 
Q 33.25 6.0625 36.671875 8.59375 
Q 40.09375 11.140625 42.09375 16.703125 
z
M 13.234375 30.90625 
L 42.1875 30.90625 
Q 41.609375 37.453125 38.875 40.71875 
Q 34.671875 45.796875 27.984375 45.796875 
Q 21.921875 45.796875 17.796875 41.75 
Q 13.671875 37.703125 13.234375 30.90625 
z
" id="ArialMT-65"/>
      <path d="M 40.4375 19 
L 49.078125 17.875 
Q 47.65625 8.9375 41.8125 3.875 
Q 35.984375 -1.171875 27.484375 -1.171875 
Q 16.84375 -1.171875 10.375 5.78125 
Q 3.90625 12.75 3.90625 25.734375 
Q 3.90625 34.125 6.6875 40.421875 
Q 9.46875 46.734375 15.15625 49.875 
Q 20.84375 53.03125 27.546875 53.03125 
Q 35.984375 53.03125 41.359375 48.75 
Q 46.734375 44.484375 48.25 36.625 
L 39.703125 35.296875 
Q 38.484375 40.53125 35.375 43.15625 
Q 32.28125 45.796875 27.875 45.796875 
Q 21.234375 45.796875 17.078125 41.03125 
Q 12.9375 36.28125 12.9375 25.984375 
Q 12.9375 15.53125 16.9375 10.796875 
Q 20.953125 6.0625 27.390625 6.0625 
Q 32.5625 6.0625 36.03125 9.234375 
Q 39.5 12.40625 40.4375 19 
z
" id="ArialMT-63"/>
      <path d="M 3.328125 25.921875 
Q 3.328125 40.328125 11.328125 47.265625 
Q 18.015625 53.03125 27.640625 53.03125 
Q 38.328125 53.03125 45.109375 46.015625 
Q 51.90625 39.015625 51.90625 26.65625 
Q 51.90625 16.65625 48.90625 10.90625 
Q 45.90625 5.171875 40.15625 2 
Q 34.421875 -1.171875 27.640625 -1.171875 
Q 16.75 -1.171875 10.03125 5.8125 
Q 3.328125 12.796875 3.328125 25.921875 
z
M 12.359375 25.921875 
Q 12.359375 15.96875 16.703125 11.015625 
Q 21.046875 6.0625 27.640625 6.0625 
Q 34.1875 6.0625 38.53125 11.03125 
Q 42.875 16.015625 42.875 26.21875 
Q 42.875 35.84375 38.5 40.796875 
Q 34.125 45.75 27.640625 45.75 
Q 21.046875 45.75 16.703125 40.8125 
Q 12.359375 35.890625 12.359375 25.921875 
z
" id="ArialMT-6f"/>
      <path d="M 6.59375 0 
L 6.59375 51.859375 
L 14.5 51.859375 
L 14.5 44.484375 
Q 20.21875 53.03125 31 53.03125 
Q 35.6875 53.03125 39.625 51.34375 
Q 43.5625 49.65625 45.515625 46.921875 
Q 47.46875 44.1875 48.25 40.4375 
Q 48.734375 37.984375 48.734375 31.890625 
L 48.734375 0 
L 39.9375 0 
L 39.9375 31.546875 
Q 39.9375 36.921875 38.90625 39.578125 
Q 37.890625 42.234375 35.28125 43.8125 
Q 32.671875 45.40625 29.15625 45.40625 
Q 23.53125 45.40625 19.453125 41.84375 
Q 15.375 38.28125 15.375 28.328125 
L 15.375 0 
z
" id="ArialMT-6e"/>
     </defs>
     <g style="fill:#ffffff;" transform="translate(289.615078 343.018906)scale(0.11 -0.11)">
      <use xlink:href="#ArialMT-31"/>
      <use x="55.615234" xlink:href="#ArialMT-73"/>
      <use x="105.615234" xlink:href="#ArialMT-74"/>
      <use x="133.398438" xlink:href="#ArialMT-20"/>
      <use x="161.181641" xlink:href="#ArialMT-50"/>
      <use x="227.880859" xlink:href="#ArialMT-43"/>
      <use x="300.097656" xlink:href="#ArialMT-41"/>
      <use x="366.71875" xlink:href="#ArialMT-20"/>
      <use x="394.501953" xlink:href="#ArialMT-64"/>
      <use x="450.117188" xlink:href="#ArialMT-69"/>
      <use x="472.333984" xlink:href="#ArialMT-72"/>
      <use x="505.634766" xlink:href="#ArialMT-65"/>
      <use x="561.25" xlink:href="#ArialMT-63"/>
      <use x="611.25" xlink:href="#ArialMT-74"/>
      <use x="639.033203" xlink:href="#ArialMT-69"/>
      <use x="661.25" xlink:href="#ArialMT-6f"/>
      <use x="716.865234" xlink:href="#ArialMT-6e"/>
     </g>
    </g>
   </g>
   <g id="matplotlib.axis_2">
    <g id="ytick_1">
     <g id="line2d_15">
      <path clip-path="url(#p3f13032187)" d="M 81 292.35 
L 583.2 292.35 
" style="fill:none;stroke:#ffffff;stroke-linecap:round;"/>
     </g>
     <g id="line2d_16"/>
     <g id="text_9">
      <!-- 0.0 -->
      <defs>
       <path d="M 9.078125 0 
L 9.078125 10.015625 
L 19.09375 10.015625 
L 19.09375 0 
z
" id="ArialMT-2e"/>
      </defs>
      <g style="fill:#ffffff;" transform="translate(60.1 295.928906)scale(0.1 -0.1)">
       <use xlink:href="#ArialMT-30"/>
       <use x="55.615234" xlink:href="#ArialMT-2e"/>
       <use x="83.398438" xlink:href="#ArialMT-30"/>
      </g>
     </g>
    </g>
    <g id="ytick_2">
     <g id="line2d_17">
      <path clip-path="url(#p3f13032187)" d="M 81 247.05 
L 583.2 247.05 
" style="fill:none;stroke:#ffffff;stroke-linecap:round;"/>
     </g>
     <g id="line2d_18"/>
     <g id="text_10">
      <!-- 0.2 -->
      <g style="fill:#ffffff;" transform="translate(60.1 250.628906)scale(0.1 -0.1)">
       <use xlink:href="#ArialMT-30"/>
       <use x="55.615234" xlink:href="#ArialMT-2e"/>
       <use x="83.398438" xlink:href="#ArialMT-32"/>
      </g>
     </g>
    </g>
    <g id="ytick_3">
     <g id="line2d_19">
      <path clip-path="url(#p3f13032187)" d="M 81 201.75 
L 583.2 201.75 
" style="fill:none;stroke:#ffffff;stroke-linecap:round;"/>
     </g>
     <g id="line2d_20"/>
     <g id="text_11">
      <!-- 0.4 -->
      <defs>
       <path d="M 32.328125 0 
L 32.328125 17.140625 
L 1.265625 17.140625 
L 1.265625 25.203125 
L 33.9375 71.578125 
L 41.109375 71.578125 
L 41.109375 25.203125 
L 50.78125 25.203125 
L 50.78125 17.140625 
L 41.109375 17.140625 
L 41.109375 0 
z
M 32.328125 25.203125 
L 32.328125 57.46875 
L 9.90625 25.203125 
z
" id="ArialMT-34"/>
      </defs>
      <g style="fill:#ffffff;" transform="translate(60.1 205.328906)scale(0.1 -0.1)">
       <use xlink:href="#ArialMT-30"/>
       <use x="55.615234" xlink:href="#ArialMT-2e"/>
       <use x="83.398438" xlink:href="#ArialMT-34"/>
      </g>
     </g>
    </g>
    <g id="ytick_4">
     <g id="line2d_21">
      <path clip-path="url(#p3f13032187)" d="M 81 156.45 
L 583.2 156.45 
" style="fill:none;stroke:#ffffff;stroke-linecap:round;"/>
     </g>
     <g id="line2d_22"/>
     <g id="text_12">
      <!-- 0.6 -->
      <defs>
       <path d="M 49.75 54.046875 
L 41.015625 53.375 
Q 39.84375 58.546875 37.703125 60.890625 
Q 34.125 64.65625 28.90625 64.65625 
Q 24.703125 64.65625 21.53125 62.3125 
Q 17.390625 59.28125 14.984375 53.46875 
Q 12.59375 47.65625 12.5 36.921875 
Q 15.671875 41.75 20.265625 44.09375 
Q 24.859375 46.4375 29.890625 46.4375 
Q 38.671875 46.4375 44.84375 39.96875 
Q 51.03125 33.5 51.03125 23.25 
Q 51.03125 16.5 48.125 10.71875 
Q 45.21875 4.9375 40.140625 1.859375 
Q 35.0625 -1.21875 28.609375 -1.21875 
Q 17.625 -1.21875 10.6875 6.859375 
Q 3.765625 14.9375 3.765625 33.5 
Q 3.765625 54.25 11.421875 63.671875 
Q 18.109375 71.875 29.4375 71.875 
Q 37.890625 71.875 43.28125 67.140625 
Q 48.6875 62.40625 49.75 54.046875 
z
M 13.875 23.1875 
Q 13.875 18.65625 15.796875 14.5 
Q 17.71875 10.359375 21.1875 8.171875 
Q 24.65625 6 28.46875 6 
Q 34.03125 6 38.03125 10.484375 
Q 42.046875 14.984375 42.046875 22.703125 
Q 42.046875 30.125 38.078125 34.390625 
Q 34.125 38.671875 28.125 38.671875 
Q 22.171875 38.671875 18.015625 34.390625 
Q 13.875 30.125 13.875 23.1875 
z
" id="ArialMT-36"/>
      </defs>
      <g style="fill:#ffffff;" transform="translate(60.1 160.028906)scale(0.1 -0.1)">
       <use xlink:href="#ArialMT-30"/>
       <use x="55.615234" xlink:href="#ArialMT-2e"/>
       <use x="83.398438" xlink:href="#ArialMT-36"/>
      </g>
     </g>
    </g>
    <g id="ytick_5">
     <g id="line2d_23">
      <path clip-path="url(#p3f13032187)" d="M 81 111.15 
L 583.2 111.15 
" style="fill:none;stroke:#ffffff;stroke-linecap:round;"/>
     </g>
     <g id="line2d_24"/>
     <g id="text_13">
      <!-- 0.8 -->
      <defs>
       <path d="M 17.671875 38.8125 
Q 12.203125 40.828125 9.5625 44.53125 
Q 6.9375 48.25 6.9375 53.421875 
Q 6.9375 61.234375 12.546875 66.546875 
Q 18.171875 71.875 27.484375 71.875 
Q 36.859375 71.875 42.578125 66.421875 
Q 48.296875 60.984375 48.296875 53.171875 
Q 48.296875 48.1875 45.671875 44.5 
Q 43.0625 40.828125 37.75 38.8125 
Q 44.34375 36.671875 47.78125 31.875 
Q 51.21875 27.09375 51.21875 20.453125 
Q 51.21875 11.28125 44.71875 5.03125 
Q 38.234375 -1.21875 27.640625 -1.21875 
Q 17.046875 -1.21875 10.546875 5.046875 
Q 4.046875 11.328125 4.046875 20.703125 
Q 4.046875 27.6875 7.59375 32.390625 
Q 11.140625 37.109375 17.671875 38.8125 
z
M 15.921875 53.71875 
Q 15.921875 48.640625 19.1875 45.40625 
Q 22.46875 42.1875 27.6875 42.1875 
Q 32.765625 42.1875 36.015625 45.375 
Q 39.265625 48.578125 39.265625 53.21875 
Q 39.265625 58.0625 35.90625 61.359375 
Q 32.5625 64.65625 27.59375 64.65625 
Q 22.5625 64.65625 19.234375 61.421875 
Q 15.921875 58.203125 15.921875 53.71875 
z
M 13.09375 20.65625 
Q 13.09375 16.890625 14.875 13.375 
Q 16.65625 9.859375 20.171875 7.921875 
Q 23.6875 6 27.734375 6 
Q 34.03125 6 38.125 10.046875 
Q 42.234375 14.109375 42.234375 20.359375 
Q 42.234375 26.703125 38.015625 30.859375 
Q 33.796875 35.015625 27.4375 35.015625 
Q 21.234375 35.015625 17.15625 30.90625 
Q 13.09375 26.8125 13.09375 20.65625 
z
" id="ArialMT-38"/>
      </defs>
      <g style="fill:#ffffff;" transform="translate(60.1 114.728906)scale(0.1 -0.1)">
       <use xlink:href="#ArialMT-30"/>
       <use x="55.615234" xlink:href="#ArialMT-2e"/>
       <use x="83.398438" xlink:href="#ArialMT-38"/>
      </g>
     </g>
    </g>
    <g id="ytick_6">
     <g id="line2d_25">
      <path clip-path="url(#p3f13032187)" d="M 81 65.85 
L 583.2 65.85 
" style="fill:none;stroke:#ffffff;stroke-linecap:round;"/>
     </g>
     <g id="line2d_26"/>
     <g id="text_14">
      <!-- 1.0 -->
      <g style="fill:#ffffff;" transform="translate(60.1 69.428906)scale(0.1 -0.1)">
       <use xlink:href="#ArialMT-31"/>
       <use x="55.615234" xlink:href="#ArialMT-2e"/>
       <use x="83.398438" xlink:href="#ArialMT-30"/>
      </g>
     </g>
    </g>
    <g id="text_15">
     <!-- target -->
     <defs>
      <path d="M 40.4375 6.390625 
Q 35.546875 2.25 31.03125 0.53125 
Q 26.515625 -1.171875 21.34375 -1.171875 
Q 12.796875 -1.171875 8.203125 3 
Q 3.609375 7.171875 3.609375 13.671875 
Q 3.609375 17.484375 5.34375 20.625 
Q 7.078125 23.78125 9.890625 25.6875 
Q 12.703125 27.59375 16.21875 28.5625 
Q 18.796875 29.25 24.03125 29.890625 
Q 34.671875 31.15625 39.703125 32.90625 
Q 39.75 34.71875 39.75 35.203125 
Q 39.75 40.578125 37.25 42.78125 
Q 33.890625 45.75 27.25 45.75 
Q 21.046875 45.75 18.09375 43.578125 
Q 15.140625 41.40625 13.71875 35.890625 
L 5.125 37.0625 
Q 6.296875 42.578125 8.984375 45.96875 
Q 11.671875 49.359375 16.75 51.1875 
Q 21.828125 53.03125 28.515625 53.03125 
Q 35.15625 53.03125 39.296875 51.46875 
Q 43.453125 49.90625 45.40625 47.53125 
Q 47.359375 45.171875 48.140625 41.546875 
Q 48.578125 39.3125 48.578125 33.453125 
L 48.578125 21.734375 
Q 48.578125 9.46875 49.140625 6.21875 
Q 49.703125 2.984375 51.375 0 
L 42.1875 0 
Q 40.828125 2.734375 40.4375 6.390625 
z
M 39.703125 26.03125 
Q 34.90625 24.078125 25.34375 22.703125 
Q 19.921875 21.921875 17.671875 20.9375 
Q 15.4375 19.96875 14.203125 18.09375 
Q 12.984375 16.21875 12.984375 13.921875 
Q 12.984375 10.40625 15.640625 8.0625 
Q 18.3125 5.71875 23.4375 5.71875 
Q 28.515625 5.71875 32.46875 7.9375 
Q 36.421875 10.15625 38.28125 14.015625 
Q 39.703125 17 39.703125 22.796875 
z
" id="ArialMT-61"/>
      <path d="M 4.984375 -4.296875 
L 13.53125 -5.5625 
Q 14.0625 -9.515625 16.5 -11.328125 
Q 19.78125 -13.765625 25.4375 -13.765625 
Q 31.546875 -13.765625 34.859375 -11.328125 
Q 38.1875 -8.890625 39.359375 -4.5 
Q 40.046875 -1.8125 39.984375 6.78125 
Q 34.234375 0 25.640625 0 
Q 14.9375 0 9.078125 7.71875 
Q 3.21875 15.4375 3.21875 26.21875 
Q 3.21875 33.640625 5.90625 39.90625 
Q 8.59375 46.1875 13.6875 49.609375 
Q 18.796875 53.03125 25.6875 53.03125 
Q 34.859375 53.03125 40.828125 45.609375 
L 40.828125 51.859375 
L 48.921875 51.859375 
L 48.921875 7.03125 
Q 48.921875 -5.078125 46.453125 -10.125 
Q 44 -15.1875 38.640625 -18.109375 
Q 33.296875 -21.046875 25.484375 -21.046875 
Q 16.21875 -21.046875 10.5 -16.875 
Q 4.78125 -12.703125 4.984375 -4.296875 
z
M 12.25 26.859375 
Q 12.25 16.65625 16.296875 11.96875 
Q 20.359375 7.28125 26.46875 7.28125 
Q 32.515625 7.28125 36.609375 11.9375 
Q 40.71875 16.609375 40.71875 26.5625 
Q 40.71875 36.078125 36.5 40.90625 
Q 32.28125 45.75 26.3125 45.75 
Q 20.453125 45.75 16.34375 40.984375 
Q 12.25 36.234375 12.25 26.859375 
z
" id="ArialMT-67"/>
     </defs>
     <g style="fill:#ffffff;" transform="translate(53.784844 193.162813)rotate(-90)scale(0.11 -0.11)">
      <use xlink:href="#ArialMT-74"/>
      <use x="27.783203" xlink:href="#ArialMT-61"/>
      <use x="83.398438" xlink:href="#ArialMT-72"/>
      <use x="116.699219" xlink:href="#ArialMT-67"/>
      <use x="172.314453" xlink:href="#ArialMT-65"/>
      <use x="227.929688" xlink:href="#ArialMT-74"/>
     </g>
    </g>
   </g>
   <g id="PathCollection_1">
    <defs>
     <path d="M 0 1.414214 
C 0.375054 1.414214 0.734797 1.265203 1 1 
C 1.265203 0.734797 1.414214 0.375054 1.414214 0 
C 1.414214 -0.375054 1.265203 -0.734797 1 -1 
C 0.734797 -1.265203 0.375054 -1.414214 0 -1.414214 
C -0.375054 -1.414214 -0.734797 -1.265203 -1 -1 
C -1.265203 -0.734797 -1.414214 -0.375054 -1.414214 0 
C -1.414214 0.375054 -1.265203 0.734797 -1 1 
C -0.734797 1.265203 -0.375054 1.414214 0 1.414214 
z
" id="C0_0_e344705e6a"/>
    </defs>
    <g clip-path="url(#p3f13032187)">
     <use style="fill:#fcb761;stroke:#000000;stroke-width:0.3;" x="234.714402" xlink:href="#C0_0_e344705e6a" y="292.35"/>
    </g>
    <g clip-path="url(#p3f13032187)">
     <use style="fill:#532687;stroke:#000000;stroke-width:0.3;" x="202.562271" xlink:href="#C0_0_e344705e6a" y="65.85"/>
    </g>
    <g clip-path="url(#p3f13032187)">
     <use style="fill:#532687;stroke:#000000;stroke-width:0.3;" x="216.56639" xlink:href="#C0_0_e344705e6a" y="65.85"/>
    </g>
    <g clip-path="url(#p3f13032187)">
     <use style="fill:#532687;stroke:#000000;stroke-width:0.3;" x="237.628764" xlink:href="#C0_0_e344705e6a" y="65.85"/>
    </g>
    <g clip-path="url(#p3f13032187)">
     <use style="fill:#532687;stroke:#000000;stroke-width:0.3;" x="188.826048" xlink:href="#C0_0_e344705e6a" y="65.85"/>
    </g>
    <g clip-path="url(#p3f13032187)">
     <use style="fill:#532687;stroke:#000000;stroke-width:0.3;" x="167.688253" xlink:href="#C0_0_e344705e6a" y="65.85"/>
    </g>
    <g clip-path="url(#p3f13032187)">
     <use style="fill:#532687;stroke:#000000;stroke-width:0.3;" x="174.010718" xlink:href="#C0_0_e344705e6a" y="65.85"/>
    </g>
    <g clip-path="url(#p3f13032187)">
     <use style="fill:#532687;stroke:#000000;stroke-width:0.3;" x="170.671044" xlink:href="#C0_0_e344705e6a" y="65.85"/>
    </g>
    <g clip-path="url(#p3f13032187)">
     <use style="fill:#532687;stroke:#000000;stroke-width:0.3;" x="116.101563" xlink:href="#C0_0_e344705e6a" y="65.85"/>
    </g>
    <g clip-path="url(#p3f13032187)">
     <use style="fill:#532687;stroke:#000000;stroke-width:0.3;" x="144.234457" xlink:href="#C0_0_e344705e6a" y="65.85"/>
    </g>
    <g clip-path="url(#p3f13032187)">
     <use style="fill:#532687;stroke:#000000;stroke-width:0.3;" x="238.497056" xlink:href="#C0_0_e344705e6a" y="65.85"/>
    </g>
    <g clip-path="url(#p3f13032187)">
     <use style="fill:#532687;stroke:#000000;stroke-width:0.3;" x="238.030828" xlink:href="#C0_0_e344705e6a" y="65.85"/>
    </g>
    <g clip-path="url(#p3f13032187)">
     <use style="fill:#532687;stroke:#000000;stroke-width:0.3;" x="131.478999" xlink:href="#C0_0_e344705e6a" y="65.85"/>
    </g>
    <g clip-path="url(#p3f13032187)">
     <use style="fill:#532687;stroke:#000000;stroke-width:0.3;" x="289.759679" xlink:href="#C0_0_e344705e6a" y="65.85"/>
    </g>
    <g clip-path="url(#p3f13032187)">
     <use style="fill:#532687;stroke:#000000;stroke-width:0.3;" x="237.219082" xlink:href="#C0_0_e344705e6a" y="65.85"/>
    </g>
    <g clip-path="url(#p3f13032187)">
     <use style="fill:#fcb761;stroke:#000000;stroke-width:0.3;" x="287.323038" xlink:href="#C0_0_e344705e6a" y="292.35"/>
    </g>
    <g clip-path="url(#p3f13032187)">
     <use style="fill:#532687;stroke:#000000;stroke-width:0.3;" x="128.998615" xlink:href="#C0_0_e344705e6a" y="65.85"/>
    </g>
    <g clip-path="url(#p3f13032187)">
     <use style="fill:#fcb761;stroke:#000000;stroke-width:0.3;" x="448.277564" xlink:href="#C0_0_e344705e6a" y="292.35"/>
    </g>
    <g clip-path="url(#p3f13032187)">
     <use style="fill:#fcb761;stroke:#000000;stroke-width:0.3;" x="355.786753" xlink:href="#C0_0_e344705e6a" y="292.35"/>
    </g>
    <g clip-path="url(#p3f13032187)">
     <use style="fill:#fcb761;stroke:#000000;stroke-width:0.3;" x="472.531601" xlink:href="#C0_0_e344705e6a" y="292.35"/>
    </g>
    <g clip-path="url(#p3f13032187)">
     <use style="fill:#fcb761;stroke:#000000;stroke-width:0.3;" x="231.042409" xlink:href="#C0_0_e344705e6a" y="292.35"/>
    </g>
    <g clip-path="url(#p3f13032187)">
     <use style="fill:#fcb761;stroke:#000000;stroke-width:0.3;" x="283.001601" xlink:href="#C0_0_e344705e6a" y="292.35"/>
    </g>
    <g clip-path="url(#p3f13032187)">
     <use style="fill:#532687;stroke:#000000;stroke-width:0.3;" x="207.176312" xlink:href="#C0_0_e344705e6a" y="65.85"/>
    </g>
    <g clip-path="url(#p3f13032187)">
     <use style="fill:#532687;stroke:#000000;stroke-width:0.3;" x="180.587437" xlink:href="#C0_0_e344705e6a" y="65.85"/>
    </g>
    <g clip-path="url(#p3f13032187)">
     <use style="fill:#fcb761;stroke:#000000;stroke-width:0.3;" x="405.655513" xlink:href="#C0_0_e344705e6a" y="292.35"/>
    </g>
    <g clip-path="url(#p3f13032187)">
     <use style="fill:#532687;stroke:#000000;stroke-width:0.3;" x="188.057198" xlink:href="#C0_0_e344705e6a" y="65.85"/>
    </g>
    <g clip-path="url(#p3f13032187)">
     <use style="fill:#532687;stroke:#000000;stroke-width:0.3;" x="164.316057" xlink:href="#C0_0_e344705e6a" y="65.85"/>
    </g>
    <g clip-path="url(#p3f13032187)">
     <use style="fill:#fcb761;stroke:#000000;stroke-width:0.3;" x="215.515742" xlink:href="#C0_0_e344705e6a" y="292.35"/>
    </g>
    <g clip-path="url(#p3f13032187)">
     <use style="fill:#532687;stroke:#000000;stroke-width:0.3;" x="208.160321" xlink:href="#C0_0_e344705e6a" y="65.85"/>
    </g>
    <g clip-path="url(#p3f13032187)">
     <use style="fill:#fcb761;stroke:#000000;stroke-width:0.3;" x="428.865225" xlink:href="#C0_0_e344705e6a" y="292.35"/>
    </g>
    <g clip-path="url(#p3f13032187)">
     <use style="fill:#532687;stroke:#000000;stroke-width:0.3;" x="191.142692" xlink:href="#C0_0_e344705e6a" y="65.85"/>
    </g>
    <g clip-path="url(#p3f13032187)">
     <use style="fill:#fcb761;stroke:#000000;stroke-width:0.3;" x="460.851097" xlink:href="#C0_0_e344705e6a" y="292.35"/>
    </g>
    <g clip-path="url(#p3f13032187)">
     <use style="fill:#532687;stroke:#000000;stroke-width:0.3;" x="210.668794" xlink:href="#C0_0_e344705e6a" y="65.85"/>
    </g>
    <g clip-path="url(#p3f13032187)">
     <use style="fill:#fcb761;stroke:#000000;stroke-width:0.3;" x="304.10665" xlink:href="#C0_0_e344705e6a" y="292.35"/>
    </g>
    <g clip-path="url(#p3f13032187)">
     <use style="fill:#532687;stroke:#000000;stroke-width:0.3;" x="139.209197" xlink:href="#C0_0_e344705e6a" y="65.85"/>
    </g>
    <g clip-path="url(#p3f13032187)">
     <use style="fill:#fcb761;stroke:#000000;stroke-width:0.3;" x="235.966063" xlink:href="#C0_0_e344705e6a" y="292.35"/>
    </g>
    <g clip-path="url(#p3f13032187)">
     <use style="fill:#532687;stroke:#000000;stroke-width:0.3;" x="214.247873" xlink:href="#C0_0_e344705e6a" y="65.85"/>
    </g>
    <g clip-path="url(#p3f13032187)">
     <use style="fill:#fcb761;stroke:#000000;stroke-width:0.3;" x="384.885264" xlink:href="#C0_0_e344705e6a" y="292.35"/>
    </g>
    <g clip-path="url(#p3f13032187)">
     <use style="fill:#532687;stroke:#000000;stroke-width:0.3;" x="235.143773" xlink:href="#C0_0_e344705e6a" y="65.85"/>
    </g>
    <g clip-path="url(#p3f13032187)">
     <use style="fill:#fcb761;stroke:#000000;stroke-width:0.3;" x="278.279798" xlink:href="#C0_0_e344705e6a" y="292.35"/>
    </g>
    <g clip-path="url(#p3f13032187)">
     <use style="fill:#fcb761;stroke:#000000;stroke-width:0.3;" x="261.348329" xlink:href="#C0_0_e344705e6a" y="292.35"/>
    </g>
    <g clip-path="url(#p3f13032187)">
     <use style="fill:#532687;stroke:#000000;stroke-width:0.3;" x="129.398985" xlink:href="#C0_0_e344705e6a" y="65.85"/>
    </g>
    <g clip-path="url(#p3f13032187)">
     <use style="fill:#fcb761;stroke:#000000;stroke-width:0.3;" x="299.404741" xlink:href="#C0_0_e344705e6a" y="292.35"/>
    </g>
    <g clip-path="url(#p3f13032187)">
     <use style="fill:#532687;stroke:#000000;stroke-width:0.3;" x="148.424466" xlink:href="#C0_0_e344705e6a" y="65.85"/>
    </g>
    <g clip-path="url(#p3f13032187)">
     <use style="fill:#532687;stroke:#000000;stroke-width:0.3;" x="217.61043" xlink:href="#C0_0_e344705e6a" y="65.85"/>
    </g>
    <g clip-path="url(#p3f13032187)">
     <use style="fill:#fcb761;stroke:#000000;stroke-width:0.3;" x="485.124807" xlink:href="#C0_0_e344705e6a" y="292.35"/>
    </g>
    <g clip-path="url(#p3f13032187)">
     <use style="fill:#532687;stroke:#000000;stroke-width:0.3;" x="121.85102" xlink:href="#C0_0_e344705e6a" y="65.85"/>
    </g>
    <g clip-path="url(#p3f13032187)">
     <use style="fill:#532687;stroke:#000000;stroke-width:0.3;" x="220.142393" xlink:href="#C0_0_e344705e6a" y="65.85"/>
    </g>
    <g clip-path="url(#p3f13032187)">
     <use style="fill:#532687;stroke:#000000;stroke-width:0.3;" x="172.489819" xlink:href="#C0_0_e344705e6a" y="65.85"/>
    </g>
    <g clip-path="url(#p3f13032187)">
     <use style="fill:#fcb761;stroke:#000000;stroke-width:0.3;" x="257.775184" xlink:href="#C0_0_e344705e6a" y="292.35"/>
    </g>
    <g clip-path="url(#p3f13032187)">
     <use style="fill:#fcb761;stroke:#000000;stroke-width:0.3;" x="354.6177" xlink:href="#C0_0_e344705e6a" y="292.35"/>
    </g>
    <g clip-path="url(#p3f13032187)">
     <use style="fill:#fcb761;stroke:#000000;stroke-width:0.3;" x="236.157509" xlink:href="#C0_0_e344705e6a" y="292.35"/>
    </g>
    <g clip-path="url(#p3f13032187)">
     <use style="fill:#fcb761;stroke:#000000;stroke-width:0.3;" x="386.694518" xlink:href="#C0_0_e344705e6a" y="292.35"/>
    </g>
    <g clip-path="url(#p3f13032187)">
     <use style="fill:#532687;stroke:#000000;stroke-width:0.3;" x="171.889134" xlink:href="#C0_0_e344705e6a" y="65.85"/>
    </g>
    <g clip-path="url(#p3f13032187)">
     <use style="fill:#532687;stroke:#000000;stroke-width:0.3;" x="185.204769" xlink:href="#C0_0_e344705e6a" y="65.85"/>
    </g>
    <g clip-path="url(#p3f13032187)">
     <use style="fill:#532687;stroke:#000000;stroke-width:0.3;" x="168.232141" xlink:href="#C0_0_e344705e6a" y="65.85"/>
    </g>
    <g clip-path="url(#p3f13032187)">
     <use style="fill:#532687;stroke:#000000;stroke-width:0.3;" x="164.244491" xlink:href="#C0_0_e344705e6a" y="65.85"/>
    </g>
    <g clip-path="url(#p3f13032187)">
     <use style="fill:#532687;stroke:#000000;stroke-width:0.3;" x="185.810256" xlink:href="#C0_0_e344705e6a" y="65.85"/>
    </g>
    <g clip-path="url(#p3f13032187)">
     <use style="fill:#532687;stroke:#000000;stroke-width:0.3;" x="183.444274" xlink:href="#C0_0_e344705e6a" y="65.85"/>
    </g>
    <g clip-path="url(#p3f13032187)">
     <use style="fill:#fcb761;stroke:#000000;stroke-width:0.3;" x="537.348263" xlink:href="#C0_0_e344705e6a" y="292.35"/>
    </g>
    <g clip-path="url(#p3f13032187)">
     <use style="fill:#fcb761;stroke:#000000;stroke-width:0.3;" x="232.302411" xlink:href="#C0_0_e344705e6a" y="292.35"/>
    </g>
    <g clip-path="url(#p3f13032187)">
     <use style="fill:#fcb761;stroke:#000000;stroke-width:0.3;" x="311.94544" xlink:href="#C0_0_e344705e6a" y="292.35"/>
    </g>
    <g clip-path="url(#p3f13032187)">
     <use style="fill:#532687;stroke:#000000;stroke-width:0.3;" x="163.626147" xlink:href="#C0_0_e344705e6a" y="65.85"/>
    </g>
    <g clip-path="url(#p3f13032187)">
     <use style="fill:#532687;stroke:#000000;stroke-width:0.3;" x="195.259334" xlink:href="#C0_0_e344705e6a" y="65.85"/>
    </g>
    <g clip-path="url(#p3f13032187)">
     <use style="fill:#fcb761;stroke:#000000;stroke-width:0.3;" x="357.010981" xlink:href="#C0_0_e344705e6a" y="292.35"/>
    </g>
    <g clip-path="url(#p3f13032187)">
     <use style="fill:#532687;stroke:#000000;stroke-width:0.3;" x="185.813777" xlink:href="#C0_0_e344705e6a" y="65.85"/>
    </g>
    <g clip-path="url(#p3f13032187)">
     <use style="fill:#fcb761;stroke:#000000;stroke-width:0.3;" x="535.728578" xlink:href="#C0_0_e344705e6a" y="292.35"/>
    </g>
    <g clip-path="url(#p3f13032187)">
     <use style="fill:#fcb761;stroke:#000000;stroke-width:0.3;" x="347.13199" xlink:href="#C0_0_e344705e6a" y="292.35"/>
    </g>
    <g clip-path="url(#p3f13032187)">
     <use style="fill:#fcb761;stroke:#000000;stroke-width:0.3;" x="415.306416" xlink:href="#C0_0_e344705e6a" y="292.35"/>
    </g>
    <g clip-path="url(#p3f13032187)">
     <use style="fill:#532687;stroke:#000000;stroke-width:0.3;" x="135.84414" xlink:href="#C0_0_e344705e6a" y="65.85"/>
    </g>
    <g clip-path="url(#p3f13032187)">
     <use style="fill:#532687;stroke:#000000;stroke-width:0.3;" x="244.547433" xlink:href="#C0_0_e344705e6a" y="65.85"/>
    </g>
    <g clip-path="url(#p3f13032187)">
     <use style="fill:#fcb761;stroke:#000000;stroke-width:0.3;" x="323.293551" xlink:href="#C0_0_e344705e6a" y="292.35"/>
    </g>
    <g clip-path="url(#p3f13032187)">
     <use style="fill:#532687;stroke:#000000;stroke-width:0.3;" x="170.90044" xlink:href="#C0_0_e344705e6a" y="65.85"/>
    </g>
    <g clip-path="url(#p3f13032187)">
     <use style="fill:#fcb761;stroke:#000000;stroke-width:0.3;" x="231.698542" xlink:href="#C0_0_e344705e6a" y="292.35"/>
    </g>
    <g clip-path="url(#p3f13032187)">
     <use style="fill:#fcb761;stroke:#000000;stroke-width:0.3;" x="383.58631" xlink:href="#C0_0_e344705e6a" y="292.35"/>
    </g>
    <g clip-path="url(#p3f13032187)">
     <use style="fill:#532687;stroke:#000000;stroke-width:0.3;" x="200.425041" xlink:href="#C0_0_e344705e6a" y="65.85"/>
    </g>
    <g clip-path="url(#p3f13032187)">
     <use style="fill:#532687;stroke:#000000;stroke-width:0.3;" x="123.683297" xlink:href="#C0_0_e344705e6a" y="65.85"/>
    </g>
    <g clip-path="url(#p3f13032187)">
     <use style="fill:#532687;stroke:#000000;stroke-width:0.3;" x="194.433781" xlink:href="#C0_0_e344705e6a" y="65.85"/>
    </g>
    <g clip-path="url(#p3f13032187)">
     <use style="fill:#532687;stroke:#000000;stroke-width:0.3;" x="179.495701" xlink:href="#C0_0_e344705e6a" y="65.85"/>
    </g>
    <g clip-path="url(#p3f13032187)">
     <use style="fill:#532687;stroke:#000000;stroke-width:0.3;" x="130.930172" xlink:href="#C0_0_e344705e6a" y="65.85"/>
    </g>
    <g clip-path="url(#p3f13032187)">
     <use style="fill:#fcb761;stroke:#000000;stroke-width:0.3;" x="301.047594" xlink:href="#C0_0_e344705e6a" y="292.35"/>
    </g>
    <g clip-path="url(#p3f13032187)">
     <use style="fill:#fcb761;stroke:#000000;stroke-width:0.3;" x="406.905345" xlink:href="#C0_0_e344705e6a" y="292.35"/>
    </g>
    <g clip-path="url(#p3f13032187)">
     <use style="fill:#fcb761;stroke:#000000;stroke-width:0.3;" x="315.731271" xlink:href="#C0_0_e344705e6a" y="292.35"/>
    </g>
    <g clip-path="url(#p3f13032187)">
     <use style="fill:#532687;stroke:#000000;stroke-width:0.3;" x="180.634302" xlink:href="#C0_0_e344705e6a" y="65.85"/>
    </g>
    <g clip-path="url(#p3f13032187)">
     <use style="fill:#fcb761;stroke:#000000;stroke-width:0.3;" x="287.541355" xlink:href="#C0_0_e344705e6a" y="292.35"/>
    </g>
    <g clip-path="url(#p3f13032187)">
     <use style="fill:#532687;stroke:#000000;stroke-width:0.3;" x="184.140588" xlink:href="#C0_0_e344705e6a" y="65.85"/>
    </g>
    <g clip-path="url(#p3f13032187)">
     <use style="fill:#532687;stroke:#000000;stroke-width:0.3;" x="214.453921" xlink:href="#C0_0_e344705e6a" y="65.85"/>
    </g>
    <g clip-path="url(#p3f13032187)">
     <use style="fill:#532687;stroke:#000000;stroke-width:0.3;" x="117.185407" xlink:href="#C0_0_e344705e6a" y="65.85"/>
    </g>
    <g clip-path="url(#p3f13032187)">
     <use style="fill:#fcb761;stroke:#000000;stroke-width:0.3;" x="351.726473" xlink:href="#C0_0_e344705e6a" y="292.35"/>
    </g>
    <g clip-path="url(#p3f13032187)">
     <use style="fill:#fcb761;stroke:#000000;stroke-width:0.3;" x="436.701249" xlink:href="#C0_0_e344705e6a" y="292.35"/>
    </g>
    <g clip-path="url(#p3f13032187)">
     <use style="fill:#532687;stroke:#000000;stroke-width:0.3;" x="133.968046" xlink:href="#C0_0_e344705e6a" y="65.85"/>
    </g>
    <g clip-path="url(#p3f13032187)">
     <use style="fill:#fcb761;stroke:#000000;stroke-width:0.3;" x="269.269767" xlink:href="#C0_0_e344705e6a" y="292.35"/>
    </g>
    <g clip-path="url(#p3f13032187)">
     <use style="fill:#532687;stroke:#000000;stroke-width:0.3;" x="249.786436" xlink:href="#C0_0_e344705e6a" y="65.85"/>
    </g>
    <g clip-path="url(#p3f13032187)">
     <use style="fill:#fcb761;stroke:#000000;stroke-width:0.3;" x="258.76889" xlink:href="#C0_0_e344705e6a" y="292.35"/>
    </g>
    <g clip-path="url(#p3f13032187)">
     <use style="fill:#532687;stroke:#000000;stroke-width:0.3;" x="140.207898" xlink:href="#C0_0_e344705e6a" y="65.85"/>
    </g>
    <g clip-path="url(#p3f13032187)">
     <use style="fill:#532687;stroke:#000000;stroke-width:0.3;" x="142.735414" xlink:href="#C0_0_e344705e6a" y="65.85"/>
    </g>
    <g clip-path="url(#p3f13032187)">
     <use style="fill:#fcb761;stroke:#000000;stroke-width:0.3;" x="386.707745" xlink:href="#C0_0_e344705e6a" y="292.35"/>
    </g>
    <g clip-path="url(#p3f13032187)">
     <use style="fill:#532687;stroke:#000000;stroke-width:0.3;" x="201.31779" xlink:href="#C0_0_e344705e6a" y="65.85"/>
    </g>
    <g clip-path="url(#p3f13032187)">
     <use style="fill:#532687;stroke:#000000;stroke-width:0.3;" x="175.357017" xlink:href="#C0_0_e344705e6a" y="65.85"/>
    </g>
    <g clip-path="url(#p3f13032187)">
     <use style="fill:#532687;stroke:#000000;stroke-width:0.3;" x="171.823016" xlink:href="#C0_0_e344705e6a" y="65.85"/>
    </g>
    <g clip-path="url(#p3f13032187)">
     <use style="fill:#532687;stroke:#000000;stroke-width:0.3;" x="127.091484" xlink:href="#C0_0_e344705e6a" y="65.85"/>
    </g>
    <g clip-path="url(#p3f13032187)">
     <use style="fill:#532687;stroke:#000000;stroke-width:0.3;" x="183.572912" xlink:href="#C0_0_e344705e6a" y="65.85"/>
    </g>
    <g clip-path="url(#p3f13032187)">
     <use style="fill:#532687;stroke:#000000;stroke-width:0.3;" x="237.166402" xlink:href="#C0_0_e344705e6a" y="65.85"/>
    </g>
    <g clip-path="url(#p3f13032187)">
     <use style="fill:#532687;stroke:#000000;stroke-width:0.3;" x="218.729553" xlink:href="#C0_0_e344705e6a" y="65.85"/>
    </g>
    <g clip-path="url(#p3f13032187)">
     <use style="fill:#fcb761;stroke:#000000;stroke-width:0.3;" x="388.720712" xlink:href="#C0_0_e344705e6a" y="292.35"/>
    </g>
    <g clip-path="url(#p3f13032187)">
     <use style="fill:#532687;stroke:#000000;stroke-width:0.3;" x="129.771594" xlink:href="#C0_0_e344705e6a" y="65.85"/>
    </g>
    <g clip-path="url(#p3f13032187)">
     <use style="fill:#fcb761;stroke:#000000;stroke-width:0.3;" x="338.695408" xlink:href="#C0_0_e344705e6a" y="292.35"/>
    </g>
    <g clip-path="url(#p3f13032187)">
     <use style="fill:#532687;stroke:#000000;stroke-width:0.3;" x="204.867191" xlink:href="#C0_0_e344705e6a" y="65.85"/>
    </g>
    <g clip-path="url(#p3f13032187)">
     <use style="fill:#fcb761;stroke:#000000;stroke-width:0.3;" x="272.734885" xlink:href="#C0_0_e344705e6a" y="292.35"/>
    </g>
    <g clip-path="url(#p3f13032187)">
     <use style="fill:#fcb761;stroke:#000000;stroke-width:0.3;" x="294.207047" xlink:href="#C0_0_e344705e6a" y="292.35"/>
    </g>
    <g clip-path="url(#p3f13032187)">
     <use style="fill:#532687;stroke:#000000;stroke-width:0.3;" x="197.595346" xlink:href="#C0_0_e344705e6a" y="65.85"/>
    </g>
    <g clip-path="url(#p3f13032187)">
     <use style="fill:#fcb761;stroke:#000000;stroke-width:0.3;" x="385.93412" xlink:href="#C0_0_e344705e6a" y="292.35"/>
    </g>
    <g clip-path="url(#p3f13032187)">
     <use style="fill:#fcb761;stroke:#000000;stroke-width:0.3;" x="370.830869" xlink:href="#C0_0_e344705e6a" y="292.35"/>
    </g>
    <g clip-path="url(#p3f13032187)">
     <use style="fill:#532687;stroke:#000000;stroke-width:0.3;" x="248.013849" xlink:href="#C0_0_e344705e6a" y="65.85"/>
    </g>
   </g>
   <g id="line2d_27">
    <path clip-path="url(#p3f13032187)" d="M 81 65.908123 
L 110.635727 66.105607 
L 126.709342 66.42022 
L 138.094819 66.855693 
L 146.80136 67.400589 
L 154.001 68.065982 
L 160.196039 68.85999 
L 165.553911 69.768803 
L 170.242048 70.781581 
L 174.595319 71.948646 
L 178.613723 73.26152 
L 182.297259 74.701944 
L 185.645929 76.241529 
L 188.827165 77.937733 
L 192.008402 79.892817 
L 195.022204 82.013965 
L 197.868574 84.285208 
L 200.714943 86.843735 
L 203.561312 89.716616 
L 206.240248 92.731836 
L 208.919184 96.071175 
L 211.59812 99.754879 
L 214.277055 103.800778 
L 217.123425 108.512417 
L 219.969794 113.660683 
L 222.983597 119.592198 
L 225.997399 126.011834 
L 229.346069 133.69378 
L 232.862172 142.331654 
L 236.880576 152.817478 
L 241.903581 166.603868 
L 257.474895 209.852912 
L 261.493299 220.07891 
L 265.009402 228.443817 
L 268.358072 235.838717 
L 271.539308 242.313908 
L 274.553111 247.941528 
L 277.39948 252.80452 
L 280.245849 257.237672 
L 283.092218 261.256509 
L 285.938588 264.881382 
L 288.784957 268.136034 
L 291.631326 271.04633 
L 294.477696 273.639191 
L 297.324065 275.94171 
L 300.337868 278.092747 
L 303.35167 279.9784 
L 306.532907 281.712461 
L 309.881576 283.286966 
L 313.39768 284.698887 
L 317.24865 286.001522 
L 321.434487 287.173098 
L 325.955191 288.201358 
L 330.978196 289.109659 
L 336.670934 289.903742 
L 343.20084 290.579893 
L 350.902781 291.142684 
L 360.279056 291.593059 
L 372.334267 291.935128 
L 389.077616 292.170218 
L 416.369274 292.304048 
L 484.347269 292.348465 
L 583.30046 292.349989 
L 583.30046 292.349989 
" style="fill:none;stroke:#4c72b0;stroke-linecap:round;stroke-width:1.75;"/>
   </g>
   <g id="line2d_28">
    <path clip-path="url(#p3f13032187)" d="M 246.256851 315 
L 246.256851 43.2 
" style="fill:none;stroke:#ff0000;stroke-linecap:round;"/>
   </g>
   <g id="patch_3">
    <path d="M 81 315 
L 81 43.2 
" style="fill:none;"/>
   </g>
   <g id="patch_4">
    <path d="M 583.2 315 
L 583.2 43.2 
" style="fill:none;"/>
   </g>
   <g id="patch_5">
    <path d="M 81 315 
L 583.2 315 
" style="fill:none;"/>
   </g>
   <g id="patch_6">
    <path d="M 81 43.2 
L 583.2 43.2 
" style="fill:none;"/>
   </g>
   <g id="text_16">
    <!-- Test observations in 1D feature space -->
    <defs>
     <path d="M 25.921875 0 
L 25.921875 63.140625 
L 2.34375 63.140625 
L 2.34375 71.578125 
L 59.078125 71.578125 
L 59.078125 63.140625 
L 35.40625 63.140625 
L 35.40625 0 
z
" id="ArialMT-54"/>
     <path d="M 14.703125 0 
L 6.546875 0 
L 6.546875 71.578125 
L 15.328125 71.578125 
L 15.328125 46.046875 
Q 20.90625 53.03125 29.546875 53.03125 
Q 34.328125 53.03125 38.59375 51.09375 
Q 42.875 49.171875 45.625 45.671875 
Q 48.390625 42.1875 49.953125 37.25 
Q 51.515625 32.328125 51.515625 26.703125 
Q 51.515625 13.375 44.921875 6.09375 
Q 38.328125 -1.171875 29.109375 -1.171875 
Q 19.921875 -1.171875 14.703125 6.5 
z
M 14.59375 26.3125 
Q 14.59375 17 17.140625 12.84375 
Q 21.296875 6.0625 28.375 6.0625 
Q 34.125 6.0625 38.328125 11.0625 
Q 42.53125 16.0625 42.53125 25.984375 
Q 42.53125 36.140625 38.5 40.96875 
Q 34.46875 45.796875 28.765625 45.796875 
Q 23 45.796875 18.796875 40.796875 
Q 14.59375 35.796875 14.59375 26.3125 
z
" id="ArialMT-62"/>
     <path d="M 21 0 
L 1.265625 51.859375 
L 10.546875 51.859375 
L 21.6875 20.796875 
Q 23.484375 15.765625 25 10.359375 
Q 26.171875 14.453125 28.265625 20.21875 
L 39.796875 51.859375 
L 48.828125 51.859375 
L 29.203125 0 
z
" id="ArialMT-76"/>
     <path d="M 7.71875 0 
L 7.71875 71.578125 
L 32.375 71.578125 
Q 40.71875 71.578125 45.125 70.5625 
Q 51.265625 69.140625 55.609375 65.4375 
Q 61.28125 60.640625 64.078125 53.1875 
Q 66.890625 45.75 66.890625 36.1875 
Q 66.890625 28.03125 64.984375 21.734375 
Q 63.09375 15.4375 60.109375 11.296875 
Q 57.125 7.171875 53.578125 4.796875 
Q 50.046875 2.4375 45.046875 1.21875 
Q 40.046875 0 33.546875 0 
z
M 17.1875 8.453125 
L 32.46875 8.453125 
Q 39.546875 8.453125 43.578125 9.765625 
Q 47.609375 11.078125 50 13.484375 
Q 53.375 16.84375 55.25 22.53125 
Q 57.125 28.21875 57.125 36.328125 
Q 57.125 47.5625 53.4375 53.59375 
Q 49.75 59.625 44.484375 61.671875 
Q 40.671875 63.140625 32.234375 63.140625 
L 17.1875 63.140625 
z
" id="ArialMT-44"/>
     <path d="M 8.6875 0 
L 8.6875 45.015625 
L 0.921875 45.015625 
L 0.921875 51.859375 
L 8.6875 51.859375 
L 8.6875 57.375 
Q 8.6875 62.59375 9.625 65.140625 
Q 10.890625 68.5625 14.078125 70.671875 
Q 17.28125 72.796875 23.046875 72.796875 
Q 26.765625 72.796875 31.25 71.921875 
L 29.9375 64.265625 
Q 27.203125 64.75 24.75 64.75 
Q 20.75 64.75 19.09375 63.03125 
Q 17.4375 61.328125 17.4375 56.640625 
L 17.4375 51.859375 
L 27.546875 51.859375 
L 27.546875 45.015625 
L 17.4375 45.015625 
L 17.4375 0 
z
" id="ArialMT-66"/>
     <path d="M 40.578125 0 
L 40.578125 7.625 
Q 34.515625 -1.171875 24.125 -1.171875 
Q 19.53125 -1.171875 15.546875 0.578125 
Q 11.578125 2.34375 9.640625 5 
Q 7.71875 7.671875 6.9375 11.53125 
Q 6.390625 14.109375 6.390625 19.734375 
L 6.390625 51.859375 
L 15.1875 51.859375 
L 15.1875 23.09375 
Q 15.1875 16.21875 15.71875 13.8125 
Q 16.546875 10.359375 19.234375 8.375 
Q 21.921875 6.390625 25.875 6.390625 
Q 29.828125 6.390625 33.296875 8.421875 
Q 36.765625 10.453125 38.203125 13.9375 
Q 39.65625 17.4375 39.65625 24.078125 
L 39.65625 51.859375 
L 48.4375 51.859375 
L 48.4375 0 
z
" id="ArialMT-75"/>
     <path d="M 6.59375 -19.875 
L 6.59375 51.859375 
L 14.59375 51.859375 
L 14.59375 45.125 
Q 17.4375 49.078125 21 51.046875 
Q 24.5625 53.03125 29.640625 53.03125 
Q 36.28125 53.03125 41.359375 49.609375 
Q 46.4375 46.1875 49.015625 39.953125 
Q 51.609375 33.734375 51.609375 26.3125 
Q 51.609375 18.359375 48.75 11.984375 
Q 45.90625 5.609375 40.453125 2.21875 
Q 35.015625 -1.171875 29 -1.171875 
Q 24.609375 -1.171875 21.109375 0.6875 
Q 17.625 2.546875 15.375 5.375 
L 15.375 -19.875 
z
M 14.546875 25.640625 
Q 14.546875 15.625 18.59375 10.84375 
Q 22.65625 6.0625 28.421875 6.0625 
Q 34.28125 6.0625 38.453125 11.015625 
Q 42.625 15.96875 42.625 26.375 
Q 42.625 36.28125 38.546875 41.203125 
Q 34.46875 46.140625 28.8125 46.140625 
Q 23.1875 46.140625 18.859375 40.890625 
Q 14.546875 35.640625 14.546875 25.640625 
z
" id="ArialMT-70"/>
    </defs>
    <g style="fill:#ffffff;" transform="translate(231.06375 37.2)scale(0.12 -0.12)">
     <use xlink:href="#ArialMT-54"/>
     <use x="60.912109" xlink:href="#ArialMT-65"/>
     <use x="116.527344" xlink:href="#ArialMT-73"/>
     <use x="166.527344" xlink:href="#ArialMT-74"/>
     <use x="194.310547" xlink:href="#ArialMT-20"/>
     <use x="222.09375" xlink:href="#ArialMT-6f"/>
     <use x="277.708984" xlink:href="#ArialMT-62"/>
     <use x="333.324219" xlink:href="#ArialMT-73"/>
     <use x="383.324219" xlink:href="#ArialMT-65"/>
     <use x="438.939453" xlink:href="#ArialMT-72"/>
     <use x="472.240234" xlink:href="#ArialMT-76"/>
     <use x="522.240234" xlink:href="#ArialMT-61"/>
     <use x="577.855469" xlink:href="#ArialMT-74"/>
     <use x="605.638672" xlink:href="#ArialMT-69"/>
     <use x="627.855469" xlink:href="#ArialMT-6f"/>
     <use x="683.470703" xlink:href="#ArialMT-6e"/>
     <use x="739.085938" xlink:href="#ArialMT-73"/>
     <use x="789.085938" xlink:href="#ArialMT-20"/>
     <use x="816.869141" xlink:href="#ArialMT-69"/>
     <use x="839.085938" xlink:href="#ArialMT-6e"/>
     <use x="894.701172" xlink:href="#ArialMT-20"/>
     <use x="922.484375" xlink:href="#ArialMT-31"/>
     <use x="978.099609" xlink:href="#ArialMT-44"/>
     <use x="1050.316406" xlink:href="#ArialMT-20"/>
     <use x="1078.099609" xlink:href="#ArialMT-66"/>
     <use x="1105.882812" xlink:href="#ArialMT-65"/>
     <use x="1161.498047" xlink:href="#ArialMT-61"/>
     <use x="1217.113281" xlink:href="#ArialMT-74"/>
     <use x="1244.896484" xlink:href="#ArialMT-75"/>
     <use x="1300.511719" xlink:href="#ArialMT-72"/>
     <use x="1333.8125" xlink:href="#ArialMT-65"/>
     <use x="1389.427734" xlink:href="#ArialMT-20"/>
     <use x="1417.210938" xlink:href="#ArialMT-73"/>
     <use x="1467.210938" xlink:href="#ArialMT-70"/>
     <use x="1522.826172" xlink:href="#ArialMT-61"/>
     <use x="1578.441406" xlink:href="#ArialMT-63"/>
     <use x="1628.441406" xlink:href="#ArialMT-65"/>
    </g>
   </g>
   <g id="legend_1">
    <g id="patch_7">
     <path d="M 502.84375 174.495313 
L 522.84375 174.495313 
L 522.84375 167.495313 
L 502.84375 167.495313 
z
" style="fill:#fcb761;stroke:#fcb761;stroke-linejoin:miter;stroke-width:0.3;"/>
    </g>
    <g id="text_17">
     <!-- malignant -->
     <defs>
      <path d="M 6.59375 0 
L 6.59375 51.859375 
L 14.453125 51.859375 
L 14.453125 44.578125 
Q 16.890625 48.390625 20.9375 50.703125 
Q 25 53.03125 30.171875 53.03125 
Q 35.9375 53.03125 39.625 50.640625 
Q 43.3125 48.25 44.828125 43.953125 
Q 50.984375 53.03125 60.84375 53.03125 
Q 68.5625 53.03125 72.703125 48.75 
Q 76.859375 44.484375 76.859375 35.59375 
L 76.859375 0 
L 68.109375 0 
L 68.109375 32.671875 
Q 68.109375 37.9375 67.25 40.25 
Q 66.40625 42.578125 64.15625 43.984375 
Q 61.921875 45.40625 58.890625 45.40625 
Q 53.421875 45.40625 49.796875 41.765625 
Q 46.1875 38.140625 46.1875 30.125 
L 46.1875 0 
L 37.40625 0 
L 37.40625 33.6875 
Q 37.40625 39.546875 35.25 42.46875 
Q 33.109375 45.40625 28.21875 45.40625 
Q 24.515625 45.40625 21.359375 43.453125 
Q 18.21875 41.5 16.796875 37.734375 
Q 15.375 33.984375 15.375 26.90625 
L 15.375 0 
z
" id="ArialMT-6d"/>
      <path d="M 6.390625 0 
L 6.390625 71.578125 
L 15.1875 71.578125 
L 15.1875 0 
z
" id="ArialMT-6c"/>
     </defs>
     <g style="fill:#262626;" transform="translate(530.84375 174.495313)scale(0.1 -0.1)">
      <use xlink:href="#ArialMT-6d"/>
      <use x="83.300781" xlink:href="#ArialMT-61"/>
      <use x="138.916016" xlink:href="#ArialMT-6c"/>
      <use x="161.132812" xlink:href="#ArialMT-69"/>
      <use x="183.349609" xlink:href="#ArialMT-67"/>
      <use x="238.964844" xlink:href="#ArialMT-6e"/>
      <use x="294.580078" xlink:href="#ArialMT-61"/>
      <use x="350.195312" xlink:href="#ArialMT-6e"/>
      <use x="405.810547" xlink:href="#ArialMT-74"/>
     </g>
    </g>
    <g id="patch_8">
     <path d="M 502.84375 188.757812 
L 522.84375 188.757812 
L 522.84375 181.757812 
L 502.84375 181.757812 
z
" style="fill:#532687;stroke:#532687;stroke-linejoin:miter;stroke-width:0.3;"/>
    </g>
    <g id="text_18">
     <!-- benign -->
     <g style="fill:#262626;" transform="translate(530.84375 188.757812)scale(0.1 -0.1)">
      <use xlink:href="#ArialMT-62"/>
      <use x="55.615234" xlink:href="#ArialMT-65"/>
      <use x="111.230469" xlink:href="#ArialMT-6e"/>
      <use x="166.845703" xlink:href="#ArialMT-69"/>
      <use x="189.0625" xlink:href="#ArialMT-67"/>
      <use x="244.677734" xlink:href="#ArialMT-6e"/>
     </g>
    </g>
   </g>
  </g>
 </g>
 <defs>
  <clipPath id="p3f13032187">
   <rect height="271.8" width="502.2" x="81" y="43.2"/>
  </clipPath>
 </defs>
</svg>
